<?xml version="1.0" encoding="UTF-8"?>
<svg width="672px" height="127px" viewBox="0 0 672 127" version="1.1" xmlns="http://www.w3.org/2000/svg" xmlns:xlink="http://www.w3.org/1999/xlink">
    <title>logo copy</title>
    <g id="Page-1" stroke="none" stroke-width="1" fill="none" fill-rule="evenodd">
        <g id="Desktop-HD-Copy" transform="translate(-388.000000, -651.000000)" fill="#000000">
            <g id="logo-copy" transform="translate(388.000000, 651.313038)">
                <path d="M53,9.68696195 C82.2710917,9.68696195 106,33.4158702 106,62.6869619 C106,91.9580537 82.2710917,115.686962 53,115.686962 C23.7289083,115.686962 0,91.9580537 0,62.6869619 C0,33.4158702 23.7289083,9.68696195 53,9.68696195 Z M53,25.6869619 C32.5654643,25.6869619 16,42.2524262 16,62.6869619 C16,83.1214977 32.5654643,99.6869619 53,99.6869619 C73.4345357,99.6869619 90,83.1214977 90,62.6869619 C90,42.2524262 73.4345357,25.6869619 53,25.6869619 Z" id="Combined-Shape"></path>
                <path d="M425.259259,15.9091842 C454.530351,15.9091842 478.259259,39.6380924 478.259259,68.9091842 C478.259259,98.1802759 454.530351,121.909184 425.259259,121.909184 C395.988168,121.909184 372.259259,98.1802759 372.259259,68.9091842 C372.259259,39.6380924 395.988168,15.9091842 425.259259,15.9091842 Z M425.259259,31.9091842 C404.824724,31.9091842 388.259259,48.4746484 388.259259,68.9091842 C388.259259,89.3437199 404.824724,105.909184 425.259259,105.909184 C445.693795,105.909184 462.259259,89.3437199 462.259259,68.9091842 C462.259259,48.4746484 445.693795,31.9091842 425.259259,31.9091842 Z" id="Combined-Shape-Copy"></path>
                <path d="M618.259259,15.9091842 C647.530351,15.9091842 671.259259,39.6380924 671.259259,68.9091842 C671.259259,98.1802759 647.530351,121.909184 618.259259,121.909184 C588.988168,121.909184 565.259259,98.1802759 565.259259,68.9091842 C565.259259,39.6380924 588.988168,15.9091842 618.259259,15.9091842 Z M618.259259,31.9091842 C597.824724,31.9091842 581.259259,48.4746484 581.259259,68.9091842 C581.259259,89.3437199 597.824724,105.909184 618.259259,105.909184 C638.693795,105.909184 655.259259,89.3437199 655.259259,68.9091842 C655.259259,48.4746484 638.693795,31.9091842 618.259259,31.9091842 Z" id="Combined-Shape-Copy-2"></path>
                <polygon id="Path" points="530.469495 121.623671 530.469495 30.1806328 558.493732 30.1806328 558.493732 16.0540506 485.024786 16.0540506 485.024786 30.1806328 513.200506 30.1806328 513.200506 121.623671"></polygon>
                <polygon id="Rectangle" transform="translate(54.579858, 63.109106) rotate(-55.000000) translate(-54.579858, -63.109106) " points="-15.6533604 54.181433 124.34664 54.181433 125.370627 62.9896685 -16.210911 72.0367789"></polygon>
                <polygon id="Path" points="139.787492 121.623671 139.787492 74.3831645 180.536248 121.623671 203.10712 121.623671 156.602034 68.91481 202.349708 16.0540506 180.68773 16.0540506 139.787492 64.2059493 139.787492 16.0540506 122.518502 16.0540506 122.518502 121.623671"></polygon>
                <polygon id="Path" points="229.675828 121.623671 229.675828 16.0540506 212.406838 16.0540506 212.406838 121.623671"></polygon>
                <polygon id="Path" points="266.667172 121.623671 266.667172 49.3198733 298.932915 121.623671 310.900022 121.623671 343.014283 49.3198733 343.014283 121.623671 360.283272 121.623671 360.283272 16.0540506 341.802424 16.0540506 304.992209 98.8388607 268.030513 16.0540506 249.398182 16.0540506 249.398182 121.623671"></polygon>
            </g>
        </g>
    </g>
</svg>